{"title":"Hellboy II: The Golden Army (2008)MP-4[DaScubaDude]","uid":12350484,"size":1465858944,"categoryP":"video","categoryS":"movies","magnet":"?xt=urn:btih:12ce0576a352f917552351476229cfbb04aa3890&amp;dn=Hellboy+II%3A+The+Golden+Army+%282008%29MP-4%5BDaScubaDude%5D&amp;tr=udp%3A%2F%2Ftracker.openbittorrent.com%3A80&amp;tr=udp%3A%2F%2Fopen.demonii.com%3A1337&amp;tr=udp%3A%2F%2Ftracker.coppersurfer.tk%3A6969&amp;tr=udp%3A%2F%2Fexodus.desync.com%3A6969","seeders":3,"leechers":0,"uploader":"dascuba","files":1,"time":1441413947,"description":"Hellboy II: The Golden Army (2008)\nPG-13  |  120 min  |  Action, Adventure, Fantasy  |  11 July 2008 (USA)\n7.0 Your rating:   -/10   Ratings: 7.0/10 from 195,113 users   Metascore: 78/100 \nReviews: 341 user | 342 critic | 36 from Metacritic.com\nThe mythical world starts a rebellion against humanity in order to rule the Earth, so Hellboy and his team must save the world from the rebellious creatures.\n\nDirector: Guillermo del Toro\nWriters: Guillermo del Toro (screenplay), Guillermo del Toro (story), 2 more credits Â»\nStars: Ron Perlman, Selma Blair, Doug Jones \n\nGeneral\nComplete name                : C:Hellboy IIHELLBOY_II_THE_GOLDEN_ARMY_Title1.mp4\nFormat                                   : MPEG-4\nFormat profile                           : Base Media\nCodec ID                                 : isom\nFile size                                : 1.37 GiB\nDuration                                 : 1h 59mn\nOverall bit rate mode                    : Constant\nOverall bit rate                         : 1 633 Kbps\nMovie name                               : HELLBOY_II_THE_GOLDEN_ARMY\nGenre                                    : Action\nWriting application                      : Lavf54.6.100\n\nVideo\nID                                       : 1\nFormat                                   : MPEG-4 Visual\nFormat settings, BVOP                    : No\nFormat settings, QPel                    : No\nFormat settings, GMC                     : No warppoints\nFormat settings, Matrix                  : Default (H.263)\nCodec ID                                 : 20\nDuration                                 : 1h 59mn\nBit rate mode                            : Constant\nBit rate                                 : 1 499 Kbps\nWidth                                    : 720 pixels\nHeight                                   : 404 pixels\nDisplay aspect ratio                     : 16:9\nFrame rate mode                          : Constant\nFrame rate                               : 29.970 fps\nColor space                              : YUV\nChroma subsampling                       : 4:2:0\nBit depth                                : 8 bits\nScan type                                : Progressive\nCompression mode                         : Lossy\nBits/(Pixel*Frame)                       : 0.172\nStream size                              : 1.25 GiB (92%)\nWriting library                          : Lavc54.23.100\n\nAudio\nID                                       : 2\nFormat                                   : MPEG Audio\nFormat version                           : Version 1\nFormat profile                           : Layer 3\nCodec ID                                 : 6B\nDuration                                 : 1h 59mn\nBit rate mode                            : Constant\nBit rate                                 : 128 Kbps\nChannel(s)                               : 2 channels\nSampling rate                            : 44.1 KHz\nCompression mode                         : Lossy\nStream size                              : 110 MiB (8%)\nWriting library                          : LAME3.99.5","torrent":{"xt":"urn:btih:12ce0576a352f917552351476229cfbb04aa3890","amp;dn":"Hellboy+II%3A+The+Golden+Army+%282008%29MP-4%5BDaScubaDude%5D","amp;tr":["udp%3A%2F%2Ftracker.openbittorrent.com%3A80","udp%3A%2F%2Fopen.demonii.com%3A1337","udp%3A%2F%2Ftracker.coppersurfer.tk%3A6969","udp%3A%2F%2Fexodus.desync.com%3A6969"],"infoHash":"12ce0576a352f917552351476229cfbb04aa3890","infoHashBuffer":{"type":"Buffer","data":[18,206,5,118,163,82,249,23,85,35,81,71,98,41,207,187,4,170,56,144]},"announce":[],"urlList":[]}}